<svg xmlns="http://www.w3.org/2000/svg" width="96" height="96" viewBox="0 0 96 96" fill="none">
  <defs>
    <linearGradient id="g" x1="14" y1="10" x2="86" y2="86" gradientUnits="userSpaceOnUse">
      <stop stop-color="#3AA0FF"/>
      <stop offset="1" stop-color="#66D3FF"/>
    </linearGradient>
    <filter id="s" x="0" y="0" width="120%" height="120%">
      <feDropShadow dx="0" dy="10" stdDeviation="8" flood-color="#000" flood-opacity=".35"/>
    </filter>
  </defs>

  <rect x="10" y="10" width="76" height="76" rx="18" fill="rgba(255,255,255,0.06)" stroke="rgba(255,255,255,0.14)"/>
  <g filter="url(#s)">
    <path d="M24 62L33.8 34H41.2L51 62H43.6L41.6 55.8H33.4L31.4 62H24ZM35.2 49.8H39.8L37.6 42.8L35.2 49.8Z" fill="url(#g)"/>
    <path d="M55 34H62.6V62H55V34Z" fill="url(#g)"/>
    <path d="M73.2 34H79.2V62H72V49.8H65.8V44.4H72V34.8C72 34.3 72.4 34 73 34H73.2Z" fill="url(#g)"/>
  </g>

  <path d="M62.8 72.8H26.2" stroke="rgba(255,255,255,0.18)" stroke-width="2" stroke-linecap="round"/>
  <path d="M69.2 72.8H79.6" stroke="rgba(255,255,255,0.18)" stroke-width="2" stroke-linecap="round"/>
</svg>
